<svg width="114" height="23" viewBox="0 0 114 23" fill="none" xmlns="http://www.w3.org/2000/svg">
<path d="M19.2618 16.415C19.2618 20.0822 16.3358 22.5441 11.4464 22.5441H0V0.485352H10.8047C15.5293 0.485352 18.2949 2.75554 18.2949 6.35887C18.2949 8.40331 17.1676 10.5116 15.2718 11.1931C17.9444 11.7766 19.2618 14.0468 19.2618 16.415ZM5.434 9.47239H9.93489C11.9911 9.47239 13.1184 8.53109 13.1184 7.10424C13.1184 5.71146 12.0249 4.96183 9.93489 4.96183H5.434V9.47239ZM10.7076 18.0037C12.958 18.0037 13.9544 16.9985 13.9544 15.6994C13.9544 14.3365 12.8271 13.655 10.8342 13.655H5.42978V18.0037H10.7076Z" fill="#141414"/>
<path d="M44.3129 11.5171C44.3129 17.9401 39.3307 23.0001 32.7355 23.0001C26.1404 23.0001 21.1582 17.9401 21.1582 11.5171C21.1582 5.09418 26.1404 0.0341797 32.7355 0.0341797C39.3307 0.0341797 44.3129 5.09418 44.3129 11.5171ZM38.8155 11.5171C38.8155 8.04585 36.2738 5.12825 32.7398 5.12825C29.2058 5.12825 26.664 8.04585 26.664 11.5171C26.664 14.9884 29.2058 17.906 32.7398 17.906C36.2738 17.906 38.8155 14.9884 38.8155 11.5171Z" fill="#141414"/>
<path d="M69.7972 11.5171C69.7972 17.9401 64.815 23.0001 58.2199 23.0001C51.6248 23.0001 46.6426 17.9401 46.6426 11.5171C46.6426 5.09418 51.6248 0.0341797 58.2199 0.0341797C64.815 0.0341797 69.7972 5.09418 69.7972 11.5171ZM64.2999 11.5171C64.2999 8.04585 61.7581 5.12825 58.2241 5.12825C54.6901 5.12825 52.1483 8.04585 52.1483 11.5171C52.1483 14.9884 54.6901 17.906 58.2241 17.906C61.7581 17.906 64.2999 14.9884 64.2999 11.5171Z" fill="#141414"/>
<path d="M78.4535 18.0676V22.5441H73.0195V0.485352H78.4535V10.5074L87.1682 0.485352H93.5986L85.2724 10.1539L94.308 22.5441H87.6833L81.5737 14.4344L78.4535 18.0676Z" fill="#141414"/>
<path d="M113.954 7.33019H108.487C108.195 5.67759 107.199 4.34444 104.885 4.34444C102.955 4.34444 101.701 5.18778 101.701 6.61463C101.701 7.87963 102.601 8.43333 104.336 8.78685L107.393 9.50241C111.413 10.3798 113.984 12.0324 113.984 15.8274C113.984 20.24 110.382 22.9957 104.915 22.9957C99.9956 22.9957 95.5581 20.5935 95.043 15.1459H100.511C100.865 17.0924 102.504 18.3574 105.079 18.3574C107.009 18.3574 108.166 17.578 108.166 16.347C108.166 15.5676 107.748 14.7583 105.852 14.4006L102.25 13.6211C97.9394 12.6798 95.917 10.7035 95.917 7.19815C95.917 2.78981 99.451 0 104.598 0C108.136 0 113.41 1.39278 113.954 7.33019Z" fill="#141414"/>
</svg>
